#!OML:ASF I:\Actors\actors\Patient Classification 1\Patient 1\Session 1\Subject1.ASF
:FULLY-SPECIFIED
:DEGREES
1005
root 0.718233 17.5349 9.26826 6.17218 -4.8438 -9.42597
lowerback 3.64374 1.71594 8.61298
upperback -2.81454 2.8367 0.925249
thorax -4.6286 1.13737 -4.0639
lowerneck -17.8675 -3.06227 -1.69037
upperneck 40.0535 -6.22952 4.66257
head 18.2521 -2.10603 1.21297
rclavicle -1.89591e-014 5.96354e-015
rhumerus -54.4179 51.5658 -111.675
rradius 91.7917
rwrist -8.80295
rhand 13.2759 -20.0873
rfingers 7.12502
rthumb 38.2264 314.175
lclavicle -1.89591e-014 5.96354e-015
lhumerus -69.8493 -66.4084 120.736
lradius 86.2731
lwrist 52.1517
lhand -20.7262 -17.4638
lfingers 7.12502
lthumb 5.6387 12.4412
rfemur -3.19086 21.4763 27.333
rtibia 6.20256
rfoot -13.1012 -22.4824
rtoes 6.07334
lfemur 5.08334 -28.7096 -11.0355
ltibia -0.801092
lfoot -13.3515 39.891
ltoes -1.23737
1006
root 0.722363 17.5339 9.26833 6.30984 -4.70684 -9.39977
lowerback 3.52309 1.65383 8.63106
upperback -2.86804 2.74436 0.903882
thorax -4.62693 1.08923 -4.08686
lowerneck -17.7621 -3.00489 -1.52821
upperneck 40.0693 -6.14685 4.53172
head 18.2131 -2.06877 1.14104
rclavicle -2.21148e-014 -1.86858e-014
rhumerus -54.2271 52.1105 -112.082
rradius 92.1331
rwrist -7.17725
rhand 12.5085 -19.8054
rfingers 7.12502
rthumb 37.5015 314.261
lclavicle -2.21148e-014 -1.86858e-014
lhumerus -70.1711 -66.5467 121.213
lradius 86.704
lwrist 52.6392
lhand -20.9847 -17.5497
lfingers 7.12502
lthumb 5.38915 12.3618
rfemur -3.3369 21.4668 27.2282
rtibia 6.15551
rfoot -13.0692 -22.5815
rtoes 6.10649
lfemur 4.79659 -28.7689 -10.9378
ltibia -0.713509
lfoot -13.2537 39.8586
ltoes -1.67608
1007
root 0.725232 17.534 9.26817 6.34851 -4.6436 -9.37414
lowerback 3.50066 1.62243 8.6434
upperback -2.87752 2.70042 0.882088
thorax -4.62856 1.06633 -4.11315
lowerneck -17.7355 -2.99185 -1.46986
upperneck 40.1522 -6.1449 4.50536
head 18.2509 -2.06203 1.12057
rclavicle -1.3828e-014 -3.61788e-014
rhumerus -53.9502 52.9004 -112.479
rradius 92.4076
rwrist -5.35335
rhand 10.98 -19.3284
rfingers 7.12502
rthumb 36.0553 314.369
lclavicle -1.3828e-014 -3.61788e-014
lhumerus -70.4185 -66.8108 121.665
lradius 87.0553
lwrist 52.6883
lhand -21.314 -17.6627
lfingers 7.12502
lthumb 5.07121 12.2566
rfemur -3.3601 21.4651 27.1721
rtibia 6.10374
rfoot -13.0432 -22.6252
rtoes 6.14199
lfemur 4.69237 -28.7975 -10.9292
ltibia -0.67004
lfoot -13.1968 39.8293
ltoes -1.89992
1008
root 0.725757 17.5357 9.2675 6.30551 -4.78855 -9.3775
lowerback 3.57037 1.65566 8.61037
upperback -2.83754 2.74818 0.889811
thorax -4.62118 1.09267 -4.09156
lowerneck -17.7537 -3.00722 -1.53493
upperneck 40.2858 -6.17449 4.54897
head 18.3424 -2.07533 1.14911
rclavicle 3.86512e-014 3.29983e-014
rhumerus -53.6773 53.8926 -112.799
rradius 92.8028
rwrist -3.84374
rhand 9.70094 -18.973
rfingers 7.12502
rthumb 34.8426 314.434
lclavicle 3.86512e-014 3.29983e-014
lhumerus -70.506 -67.1433 121.973
lradius 87.3382
lwrist 52.8469
lhand -21.712 -17.324
lfingers 7.12502
lthumb 4.6869 12.6041
rfemur -3.30993 21.4897 27.1858
rtibia 6.08695
rfoot -12.9764 -22.5265
rtoes 5.92326
lfemur 4.84607 -28.8127 -11.0223
ltibia -0.731636
lfoot -13.1807 39.9632
ltoes -1.82763
1009
root 0.724602 17.5372 9.26628 6.27002 -5.0583 -9.36337
lowerback 3.63849 1.72669 8.5051
upperback -2.79545 2.84214 0.904491
thorax -4.60763 1.14477 -4.02529
lowerneck -17.7506 -3.02231 -1.60847
upperneck 40.3691 -6.18674 4.57136
head 18.3966 -2.08748 1.17204
rclavicle 5.46658e-015 -3.4191e-014
rhumerus -53.4247 54.911 -112.975
rradius 93.3129
rwrist -2.8799
rhand 8.66076 -18.6463
rfingers 7.12502
rthumb 33.855 314.538
lclavicle 5.46658e-015 -3.4191e-014
lhumerus -70.5016 -67.5041 122.15
lradius 87.5439
lwrist 53.4225
lhand -21.9917 -16.9789
lfingers 7.12502
lthumb 4.41675 12.9551
rfemur -3.28873 21.5584 27.1734
rtibia 6.10185
rfoot -12.907 -22.3466
rtoes 5.72225
lfemur 5.05088 -28.7691 -11.1571
ltibia -0.818836
lfoot -13.2481 40.1577
ltoes -1.64449
1010
root 0.72253 17.5386 9.26458 6.2415 -5.33382 -9.34207
lowerback 3.7097 1.80239 8.37993
upperback -2.77298 2.94241 0.915695
thorax -4.61679 1.19903 -3.95268
lowerneck -17.7362 -3.03369 -1.59598
upperneck 40.4184 -6.18215 4.49869
head 18.4167 -2.0938 1.13743
rclavicle -2.60905e-015 3.18055e-015
rhumerus -53.0866 55.894 -112.993
rradius 93.7395
rwrist -1.75399
rhand 7.586 -18.2022
rfingers 7.12502
rthumb 32.8333 314.763
lclavicle -2.60905e-015 3.18055e-015
lhumerus -70.571 -67.8728 122.327
lradius 87.6797
lwrist 54.0823
lhand -21.6848 -16.5127
lfingers 7.12502
lthumb 4.71308 13.4149
rfemur -3.28101 21.6483 27.1538
rtibia 6.13944
rfoot -12.8577 -22.1652
rtoes 5.79723
lfemur 5.24606 -28.7327 -11.2906
ltibia -0.901934
lfoot -13.4279 40.3561
ltoes -1.25424
1011
root 0.725768 17.5379 9.26536 6.2511 -5.20346 -9.3222
lowerback 3.66173 1.76298 8.43478
upperback -2.76994 2.887 0.896128
thorax -4.59027 1.17067 -3.99809
lowerneck -17.7014 -3.05336 -1.58738
upperneck 40.4329 -6.20541 4.4706
head 18.415 -2.10629 1.11848
rclavicle -2.75068e-014 3.97569e-016
rhumerus -52.6579 56.8652 -112.852
rradius 94.0996
rwrist 0.279071
rhand 6.51944 -17.6143
rfingers 7.12502
rthumb 31.8181 315.143
lclavicle -2.75068e-014 3.97569e-016
lhumerus -70.7672 -68.3011 122.56
lradius 87.7838
lwrist 54.5209
lhand -20.9081 -15.4654
lfingers 7.12502
lthumb 5.4631 14.4442
rfemur -3.22433 21.6573 27.131
rtibia 6.02645
rfoot -12.8596 -22.2976
rtoes 6.01383
lfemur 5.15379 -28.8061 -11.2796
ltibia -0.84871
lfoot -13.4595 40.2944
ltoes -1.10192
1012
root 0.688794 17.5518 9.26238 5.96755 -6.92482 -9.50806
lowerback 4.22615 2.33125 7.75698
upperback -2.66944 3.66164 1.04804
thorax -4.7502 1.57535 -3.53719
lowerneck -17.6783 -3.08094 -1.63168
upperneck 40.4121 -6.25196 4.52271
head 18.4042 -2.12494 1.14143
rclavicle -6.1002e-015 -4.65156e-014
rhumerus -52.1862 57.8342 -112.533
rradius 94.5033
rwrist 2.96906
rhand 5.4885 -16.8977
rfingers 7.12502
rthumb 30.8358 315.67
lclavicle -6.1002e-015 -4.65156e-014
lhumerus -70.9613 -68.7985 122.789
lradius 87.8522
lwrist 54.782
lhand -20.298 -14.6257
lfingers 7.12502
lthumb 6.05213 15.2678
rfemur -3.02733 22.4247 27.607
rtibia 6.43127
rfoot -12.547 -21.4404
rtoes 5.04267
lfemur 6.76773 -28.5527 -11.7689
ltibia -1.71156
lfoot -14.3935 41.5347
ltoes 0.66488
1013
root 0.691632 17.5507 9.26311 5.98004 -6.828 -9.54169
lowerback 4.20265 2.31889 7.87597
upperback -2.67085 3.65032 1.045
thorax -4.73319 1.56636 -3.60433
lowerneck -17.6828 -3.10173 -1.69979
upperneck 40.4225 -6.27364 4.55829
head 18.4182 -2.13864 1.16623
rclavicle 2.04997e-014 -2.22639e-014
rhumerus -51.7867 58.8759 -112.183
rradius 94.9462
rwrist 5.46402
rhand 4.60299 -16.1367
rfingers 7.12502
rthumb 29.9912 316.274
lclavicle 2.04997e-014 -2.22639e-014
lhumerus -71.0585 -69.2796 122.961
lradius 87.8525
lwrist 55.1058
lhand -20.0418 -14.1584
lfingers 7.12502
lthumb 6.29943 15.7279
rfemur -2.99056 22.4262 27.6423
rtibia 6.35036
rfoot -12.5028 -21.5323
rtoes 4.90603
lfemur 6.69649 -28.5395 -11.691
ltibia -1.68499
lfoot -14.2966 41.4505
ltoes 0.536755
1014
root 0.692525 17.5517 9.26287 5.99918 -6.83853 -9.56482
lowerback 4.18004 2.32276 7.90975
upperback -2.68771 3.65671 1.05297
thorax -4.73612 1.56799 -3.61444
lowerneck -17.6471 -3.09064 -1.76023
upperneck 40.4467 -6.24815 4.59074
head 18.4262 -2.13371 1.19873
rclavicle -1.22874e-014 -2.22639e-014
rhumerus -51.512 60.0491 -111.928
rradius 95.4106
rwrist 7.56386
rhand 3.58034 -15.4226
rfingers 7.12502
rthumb 29.015 316.816
lclavicle -1.22874e-014 -2.22639e-014
lhumerus -71.0706 -69.7345 123.049
lradius 87.804
lwrist 55.7618
lhand -19.8174 -13.5193
lfingers 7.12502
lthumb 6.51607 16.3605
rfemur -2.9848 22.4622 27.6646
rtibia 6.31635
rfoot -12.5057 -21.5501
rtoes 5.02329
lfemur 6.69895 -28.5362 -11.6682
ltibia -1.71528
lfoot -14.2339 41.4746
ltoes 0.441513
